<svg width="23" height="58" viewBox="0 0 23 58" fill="none" xmlns="http://www.w3.org/2000/svg">
<path d="M12.546 1.5C12.546 0.671573 11.8744 3.62117e-08 11.046 0C10.2175 -3.62117e-08 9.54596 0.671573 9.54596 1.5L11.046 1.5L12.546 1.5ZM9.9853 57.5607C10.5711 58.1464 11.5208 58.1464 12.1066 57.5607L21.6526 48.0147C22.2383 47.4289 22.2383 46.4792 21.6526 45.8934C21.0668 45.3076 20.117 45.3076 19.5312 45.8934L11.046 54.3787L2.56068 45.8934C1.97489 45.3076 1.02514 45.3076 0.439356 45.8934C-0.146431 46.4792 -0.146431 47.4289 0.439356 48.0147L9.9853 57.5607ZM11.046 1.5L9.54596 1.5L9.54596 56.5L11.046 56.5L12.546 56.5L12.546 1.5L11.046 1.5Z" fill="white"/>
</svg>
